<svg xmlns="http://www.w3.org/2000/svg">
  <symbol id="arrow-lang-icon" viewBox="0 0 24 24">
    <path d="M12 15L7.75702 10.757L9.17202 9.34299L12 12.172L14.828 9.34299L16.243 10.757L12 15Z" />
  </symbol>

  <symbol id="whatsapp-icon" viewBox="0 0 21 21">
      <path d="M17.5888 3.32338C15.7057 1.38492 13.1026 0.332611 10.4441 0.332611C4.79492 0.332611 0.253383 4.92953 0.308767 10.5234C0.308767 12.2957 0.807228 14.0126 1.638 15.5634L0.197998 20.8249L5.5703 19.4403C7.06569 20.2711 8.72722 20.6588 10.3888 20.6588C15.9826 20.6588 20.5241 16.0618 20.5241 10.468C20.5241 7.75415 19.4718 5.20645 17.5888 3.32338ZM10.4441 18.9418C8.94876 18.9418 7.45338 18.5541 6.17953 17.7788L5.84723 17.6126L2.63492 18.4434L3.46569 15.2864L3.24415 14.9541C0.807229 11.0218 1.9703 5.81568 5.95799 3.37876C9.94568 0.941842 15.0965 2.10492 17.5334 6.09261C19.9703 10.0803 18.8072 15.2311 14.8195 17.668C13.5457 18.4988 11.9949 18.9418 10.4441 18.9418ZM15.318 12.7941L14.7088 12.5172C14.7088 12.5172 13.8226 12.1295 13.2688 11.8526C13.2134 11.8526 13.158 11.7972 13.1026 11.7972C12.9365 11.7972 12.8257 11.8526 12.7149 11.908C12.7149 11.908 12.6595 11.9634 11.8841 12.8495C11.8288 12.9603 11.718 13.0157 11.6072 13.0157H11.5518C11.4965 13.0157 11.3857 12.9603 11.3303 12.9049L11.0534 12.7941C10.4441 12.5172 9.8903 12.1849 9.44722 11.7418C9.33645 11.6311 9.1703 11.5203 9.05953 11.4095C8.67184 11.0218 8.28415 10.5788 8.00722 10.0803L7.95184 9.96953C7.89646 9.91414 7.89645 9.85876 7.84107 9.74799C7.84107 9.63722 7.84107 9.52645 7.89645 9.47107C7.89645 9.47107 8.11799 9.19415 8.28415 9.02799C8.39492 8.91722 8.4503 8.75107 8.56107 8.6403C8.67184 8.47414 8.72722 8.25261 8.67184 8.08645C8.61645 7.80953 7.95184 6.31415 7.78569 5.98184C7.67492 5.81568 7.56415 5.7603 7.39799 5.70492H7.23184C7.12107 5.70492 6.95492 5.70492 6.78876 5.70492C6.67799 5.70492 6.56723 5.7603 6.45646 5.7603L6.40107 5.81568C6.2903 5.87107 6.17953 5.98184 6.06876 6.03722C5.95799 6.14799 5.90261 6.25876 5.79184 6.36953C5.40415 6.86799 5.18261 7.47722 5.18261 8.08645C5.18261 8.52953 5.29338 8.97261 5.45953 9.3603L5.51492 9.52645C6.01338 10.5788 6.67799 11.5203 7.56415 12.3511L7.78569 12.5726C7.95184 12.7388 8.11799 12.8495 8.22876 13.0157C9.39184 14.0126 10.7211 14.7326 12.2165 15.1203C12.3826 15.1757 12.6041 15.1757 12.7703 15.2311C12.9365 15.2311 13.158 15.2311 13.3241 15.2311C13.6011 15.2311 13.9334 15.1203 14.1549 15.0095C14.3211 14.8988 14.4318 14.8988 14.5426 14.788L14.6534 14.6772C14.7641 14.5664 14.8749 14.5111 14.9857 14.4003C15.0965 14.2895 15.2072 14.1788 15.2626 14.068C15.3734 13.8464 15.4288 13.5695 15.4841 13.2926C15.4841 13.1818 15.4841 13.0157 15.4841 12.9049C15.4841 12.9049 15.4288 12.8495 15.318 12.7941Z" />
  </symbol>

  <symbol id="telegram-icon" viewBox="0 0 18 16">
    <path d="M1.25423 6.97308C5.94156 4.88796 9.06717 3.51333 10.6311 2.84917C15.0964 0.952872 16.0242 0.623464 16.629 0.612471C16.762 0.610195 17.0594 0.643851 17.252 0.803455C17.4147 0.938221 17.4594 1.12027 17.4809 1.24804C17.5023 1.37582 17.5289 1.66689 17.5077 1.89432C17.2658 4.49021 16.2187 10.7898 15.6861 13.6972C15.4607 14.9274 15.0169 15.3399 14.5872 15.3803C13.6535 15.468 12.9445 14.7503 12.0401 14.145C10.625 13.1978 9.82549 12.6082 8.45184 11.684C6.86435 10.6159 7.89345 10.0288 8.79816 9.0694C9.03492 8.81831 13.149 4.99762 13.2286 4.65103C13.2386 4.60768 13.2478 4.4461 13.1538 4.36078C13.0598 4.27546 12.921 4.30464 12.8209 4.32784C12.6789 4.36073 10.4182 5.88639 6.0387 8.90482C5.397 9.35472 4.81577 9.57393 4.29501 9.56244C3.72091 9.54978 2.61658 9.23102 1.79561 8.95854C0.788673 8.62435 -0.0116247 8.44766 0.0580633 7.88009C0.094361 7.58446 0.493084 7.28213 1.25423 6.97308Z" />
  </symbol>

  <symbol id="viber-icon" viewBox="0 0 20 22">
    <path d="M17.6255 2.61913C17.1104 2.14561 15.0253 0.629519 10.3773 0.608751C10.3773 0.608751 4.89862 0.276458 2.22781 2.72712C0.7408 4.21413 0.217438 6.3865 0.163441 9.08638C0.109443 11.7821 0.0388303 16.8371 4.91108 18.2078H4.91523L4.91108 20.2971C4.91108 20.2971 4.882 21.1445 5.4386 21.3148C6.11149 21.5225 6.51024 20.8786 7.15406 20.185C7.50712 19.8028 7.9931 19.2463 8.36278 18.8184C11.694 19.0967 14.2568 18.4571 14.5476 18.3615C15.2205 18.1414 19.0294 17.6554 19.6483 12.6004C20.288 7.39999 19.3368 4.10614 17.6255 2.61913ZM18.1903 12.2349C17.667 16.455 14.5808 16.7208 14.0118 16.9036C13.7708 16.9825 11.5196 17.5432 8.68676 17.3563C8.68676 17.3563 6.5767 19.9025 5.92042 20.563C5.81658 20.6668 5.69612 20.7083 5.6172 20.6876C5.50505 20.6585 5.47182 20.5256 5.47598 20.3304C5.47598 20.0479 5.49259 16.8537 5.49259 16.8537C5.48844 16.8537 5.48844 16.8537 5.49259 16.8537C1.368 15.7115 1.60892 11.4083 1.65461 9.157C1.7003 6.90571 2.12397 5.05733 3.38253 3.81538C5.63797 1.77178 10.2942 2.075 10.2942 2.075C14.2236 2.09161 16.1052 3.2754 16.5413 3.67C17.991 4.9161 18.7303 7.88597 18.1903 12.2349Z" />
    <path d="M12.2922 9.2359C12.1551 9.2359 12.0388 9.1279 12.0305 8.98668C11.9848 8.09364 11.5653 7.6575 10.7096 7.61181C10.5642 7.6035 10.4521 7.47889 10.4604 7.33352C10.4687 7.18814 10.5933 7.07599 10.7387 7.0843C11.8685 7.1466 12.4998 7.79457 12.558 8.9576C12.5663 9.10298 12.4542 9.22759 12.3088 9.23174C12.3005 9.2359 12.2963 9.2359 12.2922 9.2359Z" />
    <path d="M13.638 9.68459H13.6338C13.4884 9.68044 13.3721 9.55998 13.3763 9.4146C13.397 8.51741 13.1395 7.79052 12.5912 7.19239C12.0471 6.59426 11.2953 6.27028 10.3026 6.19966C10.1572 6.1872 10.0492 6.06259 10.0616 5.91721C10.0741 5.77184 10.1987 5.66384 10.3441 5.6763C11.4656 5.75938 12.3503 6.14982 12.9817 6.83933C13.6172 7.53299 13.9246 8.40111 13.9038 9.42706C13.8996 9.57244 13.7792 9.68459 13.638 9.68459Z" />
    <path d="M15.017 10.2244C14.8716 10.2244 14.7553 10.1081 14.7553 9.96271C14.7428 8.35524 14.2818 7.12991 13.343 6.21195C12.4168 5.30645 11.2413 4.8454 9.85812 4.83294C9.71274 4.83294 9.59644 4.71248 9.59644 4.5671C9.59644 4.42172 9.71689 4.30542 9.85812 4.30542C11.3825 4.31788 12.6785 4.82878 13.7044 5.83397C14.7345 6.83916 15.262 8.22648 15.2786 9.95441C15.2828 10.1039 15.1665 10.2244 15.017 10.2244C15.0211 10.2244 15.0211 10.2244 15.017 10.2244Z" />
    <path d="M10.7719 12.4882C10.7719 12.4882 11.1416 12.5214 11.341 12.2764L11.7273 11.7904C11.9142 11.5495 12.3669 11.3958 12.8072 11.6409C13.0523 11.7779 13.4967 12.0521 13.7709 12.2556C14.0658 12.4716 14.6639 12.97 14.6681 12.9742C14.9547 13.2151 15.0211 13.5682 14.8259 13.9461C14.8259 13.9461 14.8259 13.9503 14.8259 13.9544C14.6265 14.3075 14.3565 14.6398 14.0201 14.9472C14.0159 14.9472 14.0159 14.9513 14.0118 14.9513C13.7335 15.1839 13.4593 15.3168 13.1935 15.3459C13.1603 15.3542 13.1229 15.3542 13.0731 15.3542C12.9568 15.3542 12.8404 15.3376 12.7241 15.3002L12.7158 15.2878C12.3005 15.1715 11.611 14.8807 10.4646 14.2452C9.71689 13.834 9.098 13.4145 8.57048 12.9949C8.29218 12.7748 8.00974 12.5297 7.71898 12.239C7.71067 12.2307 7.69821 12.2182 7.6899 12.2099C7.6816 12.2016 7.66913 12.1891 7.66083 12.1808C7.65252 12.1725 7.64006 12.1601 7.63175 12.1518C7.62344 12.1434 7.61098 12.131 7.60268 12.1227C7.31607 11.8319 7.06685 11.5495 6.84671 11.2712C6.42719 10.7478 6.00767 10.1248 5.59646 9.3771C4.96094 8.22654 4.67019 7.53703 4.55389 7.12582L4.54142 7.11751C4.50404 7.00121 4.48743 6.8849 4.48743 6.7686C4.48743 6.71876 4.48743 6.68138 4.49573 6.64815C4.52896 6.37816 4.66188 6.10817 4.89033 5.82987C4.89033 5.82572 4.89449 5.82572 4.89449 5.82157C5.20186 5.48097 5.53415 5.21513 5.88721 5.01576C5.88721 5.01576 5.89137 5.01576 5.89552 5.01576C6.26935 4.82053 6.62241 4.88699 6.86748 5.17359C6.86748 5.17359 7.37007 5.77588 7.58606 6.07079C7.78959 6.34908 8.06373 6.78937 8.2008 7.03444C8.44587 7.47473 8.29218 7.92747 8.05127 8.11439L7.56529 8.50068C7.32023 8.70006 7.35346 9.06973 7.35346 9.06973C7.35346 9.06973 8.07204 11.8028 10.7719 12.4882Z" />
  </symbol>

  <symbol id="arrow-right" viewBox="0 0 17 13">
    <path fill-rule="evenodd" clip-rule="evenodd" d="M16.207 5.79301L11.207 0.793006C10.816 0.402006 10.184 0.402006 9.793 0.793006C9.402 1.18401 9.402 1.81601 9.793 2.20701L13.086 5.50001H1.5C0.947 5.50001 0.5 5.94801 0.5 6.50001C0.5 7.05201 0.947 7.50001 1.5 7.50001H13.086L9.793 10.793C9.402 11.184 9.402 11.816 9.793 12.207C9.988 12.402 10.244 12.5 10.5 12.5C10.756 12.5 11.012 12.402 11.207 12.207L16.207 7.20701C16.598 6.81601 16.598 6.18401 16.207 5.79301Z" fill="#A49C93"/>
  </symbol>

  <symbol id="arrow-form-icon" viewBox="0 0 20 20">
    <path d="M13.0983 8L6.90169 8C6.15069 8 5.73001 8.75351 6.19399 9.2676L9.29231 12.7006C9.65265 13.0998 10.3474 13.0998 10.7077 12.7006L13.806 9.2676C14.27 8.75351 13.8493 8 13.0983 8Z" fill="#A49C93"/>
  </symbol>

  <symbol id="chat-major" viewBox="0 0 24 24">
    <g clip-path="url(#clip0_905_832)">
      <path fill-rule="evenodd" clip-rule="evenodd" d="M12 0C5.3832 0 0 5.3832 0 12C0 14.0736 0.54 16.104 1.5648 17.9088L0.1212 21.558C-0.4284 23.0088 0.9924 24.4296 2.4432 23.8788L6.0912 22.434C7.8912 23.46 9.9276 24 12 24C18.6168 24 24 18.6168 24 12C24 5.3832 18.6168 0 12 0ZM6.3516 11.1516C6.576 10.926 6.882 10.8 7.2 10.8C7.518 10.8 7.824 10.926 8.0484 11.1516C8.274 11.376 8.4 11.682 8.4 12C8.4 12.318 8.274 12.624 8.0484 12.8484C7.824 13.074 7.518 13.2 7.2 13.2C6.882 13.2 6.576 13.074 6.3516 12.8484C6.126 12.624 6 12.318 6 12C6 11.682 6.126 11.376 6.3516 11.1516ZM11.1516 11.1516C11.376 10.926 11.682 10.8 12 10.8C12.318 10.8 12.624 10.926 12.8484 11.1516C13.074 11.376 13.2 11.682 13.2 12C13.2 12.318 13.074 12.624 12.8484 12.8484C12.6228 13.0728 12.318 13.2 12 13.2C11.682 13.2 11.376 13.074 11.1516 12.8484C10.9272 12.6228 10.8 12.318 10.8 12C10.8 11.682 10.926 11.376 11.1516 11.1516ZM16.8 10.8C16.482 10.8 16.176 10.926 15.9516 11.1516C15.726 11.376 15.6 11.682 15.6 12C15.6 12.318 15.726 12.624 15.9516 12.8484C16.1772 13.0728 16.482 13.2 16.8 13.2C17.118 13.2 17.424 13.074 17.6484 12.8484C17.8728 12.6228 18 12.318 18 12C18 11.682 17.874 11.376 17.6484 11.1516C17.424 10.926 17.118 10.8 16.8 10.8Z"/>
    </g>
    <defs>
      <clipPath id="clip0_905_832">
      <rect width="24" height="24"/>
      </clipPath>
    </defs>
  </symbol>

  <symbol id="cancel-icon" viewBox="0 0 20 20">
    <path d="M11.4141 9.99997L17.7071 3.70697C17.8946 3.51946 17.9999 3.26515 17.9999 2.99997C17.9999 2.73479 17.8946 2.48048 17.7071 2.29297C17.5196 2.10546 17.2653 2.00012 17.0001 2.00012C16.7349 2.00012 16.4806 2.10546 16.2931 2.29297L10.0001 8.58597L3.70709 2.29297C3.61425 2.20013 3.50403 2.12648 3.38272 2.07623C3.26141 2.02598 3.1314 2.00012 3.00009 2.00012C2.86879 2.00012 2.73877 2.02598 2.61747 2.07623C2.49616 2.12648 2.38594 2.20013 2.29309 2.29297C2.10559 2.48048 2.00024 2.73479 2.00024 2.99997C2.00024 3.26515 2.10559 3.51946 2.29309 3.70697L8.58609 9.99997L2.29309 16.293C2.10559 16.4805 2.00024 16.7348 2.00024 17C2.00024 17.2651 2.10559 17.5195 2.29309 17.707C2.4806 17.8945 2.73492 17.9998 3.00009 17.9998C3.26527 17.9998 3.51959 17.8945 3.70709 17.707L10.0001 11.414L16.2931 17.707C16.3857 17.8002 16.4959 17.8741 16.6172 17.9246C16.7386 17.975 16.8687 18.001 17.0001 18.001C17.1315 18.001 17.2616 17.975 17.3829 17.9246C17.5043 17.8741 17.6144 17.8002 17.7071 17.707C17.8 17.6142 17.8738 17.504 17.9241 17.3827C17.9744 17.2613 18.0003 17.1313 18.0003 17C18.0003 16.8686 17.9744 16.7386 17.9241 16.6173C17.8738 16.496 17.8 16.3858 17.7071 16.293L11.4141 9.99997Z"/>
  </symbol>

  <symbol id="tiktok" viewBox="0 0 18 21">
    <path d="M13.0747 0H9.56607V14.3043C9.56607 16.0087 8.21665 17.4087 6.53733 17.4087C4.85801 17.4087 3.50856 16.0087 3.50856 14.3043C3.50856 12.6304 4.82802 11.2608 6.44738 11.2V7.60871C2.87882 7.66955 0 10.6217 0 14.3043C0 18.0174 2.93879 21 6.56733 21C10.1958 21 13.1346 17.987 13.1346 14.3043V6.96955C14.4541 7.94348 16.0734 8.52174 17.7827 8.55219V4.96087C15.1438 4.86957 13.0747 2.67826 13.0747 0Z"/>
  </symbol>

  <symbol id="instagram" viewBox="0 0 23 22">
    <path d="M11.375 1.98086C14.3141 1.98086 14.6621 1.99375 15.818 2.04531C16.8922 2.09258 17.4723 2.27305 17.859 2.42344C18.3703 2.62109 18.7398 2.86172 19.1223 3.24414C19.509 3.63086 19.7453 3.99609 19.943 4.50742C20.0934 4.89414 20.2738 5.47852 20.3211 6.54844C20.3727 7.70859 20.3855 8.05664 20.3855 10.9914C20.3855 13.9305 20.3727 14.2785 20.3211 15.4344C20.2738 16.5086 20.0934 17.0887 19.943 17.4754C19.7453 17.9867 19.5047 18.3563 19.1223 18.7387C18.7355 19.1254 18.3703 19.3617 17.859 19.5594C17.4723 19.7098 16.8879 19.8902 15.818 19.9375C14.6578 19.9891 14.3098 20.002 11.375 20.002C8.43594 20.002 8.08789 19.9891 6.93203 19.9375C5.85781 19.8902 5.27773 19.7098 4.89102 19.5594C4.37969 19.3617 4.01016 19.1211 3.62773 18.7387C3.24102 18.352 3.00469 17.9867 2.80703 17.4754C2.65664 17.0887 2.47617 16.5043 2.42891 15.4344C2.37734 14.2742 2.36445 13.9262 2.36445 10.9914C2.36445 8.05234 2.37734 7.7043 2.42891 6.54844C2.47617 5.47422 2.65664 4.89414 2.80703 4.50742C3.00469 3.99609 3.24531 3.62656 3.62773 3.24414C4.01445 2.85742 4.37969 2.62109 4.89102 2.42344C5.27773 2.27305 5.86211 2.09258 6.93203 2.04531C8.08789 1.99375 8.43594 1.98086 11.375 1.98086ZM11.375 0C8.38867 0 8.01484 0.0128906 6.8418 0.0644531C5.67305 0.116016 4.86953 0.305078 4.17344 0.575781C3.44727 0.859375 2.83281 1.2332 2.22266 1.84766C1.6082 2.45781 1.23437 3.07227 0.950781 3.79414C0.680078 4.49453 0.491016 5.29375 0.439453 6.4625C0.387891 7.63984 0.375 8.01367 0.375 11C0.375 13.9863 0.387891 14.3602 0.439453 15.5332C0.491016 16.702 0.680078 17.5055 0.950781 18.2016C1.23437 18.9277 1.6082 19.5422 2.22266 20.1523C2.83281 20.7625 3.44727 21.1406 4.16914 21.4199C4.86953 21.6906 5.66875 21.8797 6.8375 21.9312C8.01055 21.9828 8.38437 21.9957 11.3707 21.9957C14.357 21.9957 14.7309 21.9828 15.9039 21.9312C17.0727 21.8797 17.8762 21.6906 18.5723 21.4199C19.2941 21.1406 19.9086 20.7625 20.5187 20.1523C21.1289 19.5422 21.507 18.9277 21.7863 18.2059C22.057 17.5055 22.2461 16.7063 22.2977 15.5375C22.3492 14.3645 22.3621 13.9906 22.3621 11.0043C22.3621 8.01797 22.3492 7.64414 22.2977 6.47109C22.2461 5.30234 22.057 4.49883 21.7863 3.80273C21.5156 3.07227 21.1418 2.45781 20.5273 1.84766C19.9172 1.2375 19.3027 0.859375 18.5809 0.580078C17.8805 0.309375 17.0813 0.120313 15.9125 0.06875C14.7352 0.0128906 14.3613 0 11.375 0Z" />
    <path d="M11.375 5.34961C8.25547 5.34961 5.72461 7.88047 5.72461 11C5.72461 14.1195 8.25547 16.6504 11.375 16.6504C14.4945 16.6504 17.0254 14.1195 17.0254 11C17.0254 7.88047 14.4945 5.34961 11.375 5.34961ZM11.375 14.6652C9.35117 14.6652 7.70977 13.0238 7.70977 11C7.70977 8.97617 9.35117 7.33477 11.375 7.33477C13.3988 7.33477 15.0402 8.97617 15.0402 11C15.0402 13.0238 13.3988 14.6652 11.375 14.6652Z" />
    <path d="M18.568 5.12613C18.568 5.8566 17.975 6.44527 17.2488 6.44527C16.5184 6.44527 15.9297 5.8523 15.9297 5.12613C15.9297 4.39566 16.5227 3.80699 17.2488 3.80699C17.975 3.80699 18.568 4.39996 18.568 5.12613Z" />
  </symbol>

  <symbol id="facebook" viewBox="0 0 14 22">
    <path d="M9.43733 7.06667V4.94667C9.43733 4.028 9.69372 3.53333 11.4884 3.53333H13.7105V0H10.292C6.01882 0 4.30957 2.332 4.30957 4.94667V7.06667H0.891052V10.6H4.30957V21.2H9.43733V10.6H13.1977L13.7105 7.06667H9.43733Z" />
  </symbol>
  
  <symbol id="" viewBox="">

  </symbol>
  <symbol id="" viewBox="">
    
  </symbol>

  <symbol id="" viewBox="">

  </symbol>
  <symbol id="" viewBox="">
    
  </symbol>

  <symbol id="" viewBox="">

  </symbol>
  <symbol id="" viewBox="">
    
  </symbol>

  <symbol id="" viewBox="">

  </symbol>
  <symbol id="" viewBox="">
    
  </symbol>

  <symbol id="" viewBox="">

  </symbol>
</svg>

