<svg width="222" height="116" viewBox="0 0 222 116" fill="none" xmlns="http://www.w3.org/2000/svg">
<g clip-path="url(#clip0_397_12794)">
<g filter="url(#filter0_f_397_12794)">
<rect x="36" y="39" width="182" height="30" fill="url(#paint0_linear_397_12794)"/>
</g>
<path d="M53.5 5.29084e-06C46.4743 5.59794e-06 39.5174 1.38383 33.0264 4.07245C26.5355 6.76108 20.6377 10.7019 15.6698 15.6698C10.7018 20.6377 6.76107 26.5355 4.07244 33.0264C1.38381 39.5174 -2.95277e-06 46.4743 -2.33856e-06 53.5C-1.72435e-06 60.5257 1.38382 67.4827 4.07244 73.9736C6.76107 80.4645 10.7019 86.3623 15.6698 91.3302C20.6377 96.2981 26.5355 100.239 33.0264 102.928C39.5174 105.616 46.4743 107 53.5 107L53.5 53.5L53.5 5.29084e-06Z" fill="url(#paint1_linear_397_12794)"/>
<ellipse cx="53" cy="53" rx="30" ry="30" transform="rotate(-90 53 53)" fill="url(#paint2_linear_397_12794)"/>
<g filter="url(#filter1_f_397_12794)">
<path d="M78.02 68H51.74L52.28 65.39C53.9 64.67 55.52 64.07 57.14 63.59C58.82 63.11 60.5 62.69 62.18 62.33L71.54 18.14L73.25 12.83C71.51 13.49 69.65 13.97 67.67 14.27C65.69 14.51 63.74 14.6 61.82 14.54V12.38C64.76 11.48 67.85 10.37 71.09 9.05C74.33 7.73 77.42 6.02 80.36 3.92H82.61L70.28 62.33C73.22 62.99 75.98 64.01 78.56 65.39L78.02 68Z" fill="#F5F4F2"/>
</g>
</g>
<defs>
<filter id="filter0_f_397_12794" x="6" y="9" width="242" height="90" filterUnits="userSpaceOnUse" color-interpolation-filters="sRGB">
<feFlood flood-opacity="0" result="BackgroundImageFix"/>
<feBlend mode="normal" in="SourceGraphic" in2="BackgroundImageFix" result="shape"/>
<feGaussianBlur stdDeviation="15" result="effect1_foregroundBlur_397_12794"/>
</filter>
<filter id="filter1_f_397_12794" x="45.7402" y="-2.08002" width="42.8701" height="76.08" filterUnits="userSpaceOnUse" color-interpolation-filters="sRGB">
<feFlood flood-opacity="0" result="BackgroundImageFix"/>
<feBlend mode="normal" in="SourceGraphic" in2="BackgroundImageFix" result="shape"/>
<feGaussianBlur stdDeviation="3" result="effect1_foregroundBlur_397_12794"/>
</filter>
<linearGradient id="paint0_linear_397_12794" x1="48.3118" y1="54" x2="206.748" y2="52.6741" gradientUnits="userSpaceOnUse">
<stop stop-color="#F5F4F2"/>
<stop offset="0.377338" stop-color="#E2DDD7" stop-opacity="0.31"/>
<stop offset="0.9999" stop-color="white" stop-opacity="0"/>
</linearGradient>
<linearGradient id="paint1_linear_397_12794" x1="-2.33856e-06" y1="53.5" x2="55.6986" y2="50.5685" gradientUnits="userSpaceOnUse">
<stop stop-color="#B0A8A0"/>
<stop offset="0.833333" stop-color="#B0A8A0" stop-opacity="0"/>
</linearGradient>
<linearGradient id="paint2_linear_397_12794" x1="53" y1="23" x2="53" y2="83" gradientUnits="userSpaceOnUse">
<stop stop-color="#B0A8A0" stop-opacity="0.73"/>
<stop offset="0.786458" stop-color="#B0A8A0" stop-opacity="0"/>
</linearGradient>
<clipPath id="clip0_397_12794">
<rect width="222" height="116" fill="white"/>
</clipPath>
</defs>
</svg>
