<svg width="222" height="116" viewBox="0 0 222 116" fill="none" xmlns="http://www.w3.org/2000/svg">
<g clip-path="url(#clip0_397_12803)">
<g filter="url(#filter0_f_397_12803)">
<rect x="36" y="39" width="182" height="30" fill="url(#paint0_linear_397_12803)"/>
</g>
<path d="M53.5 5.29084e-06C46.4743 5.59794e-06 39.5174 1.38383 33.0264 4.07245C26.5355 6.76108 20.6377 10.7019 15.6698 15.6698C10.7018 20.6377 6.76107 26.5355 4.07244 33.0264C1.38381 39.5174 -2.95277e-06 46.4743 -2.33856e-06 53.5C-1.72435e-06 60.5257 1.38382 67.4827 4.07244 73.9736C6.76107 80.4645 10.7019 86.3623 15.6698 91.3302C20.6377 96.2981 26.5355 100.239 33.0264 102.928C39.5174 105.616 46.4743 107 53.5 107L53.5 53.5L53.5 5.29084e-06Z" fill="url(#paint1_linear_397_12803)"/>
<ellipse cx="53" cy="53" rx="30" ry="30" transform="rotate(-90 53 53)" fill="url(#paint2_linear_397_12803)"/>
<g filter="url(#filter1_f_397_12803)">
<path d="M62.36 64.85C64.82 64.85 67.01 64.37 68.93 63.41C70.85 62.39 72.44 61.07 73.7 59.45C75.02 57.83 76.01 56 76.67 53.96C77.33 51.86 77.63 49.73 77.57 47.57C77.63 43.91 76.64 41.33 74.6 39.83C72.62 38.27 69.8 37.49 66.14 37.49H60.74L60.83 35.24L79.91 14.81L83.96 11.66V11.3L79.1 11.84H64.52L59.03 21.02H56.78C56.84 18.44 56.96 15.68 57.14 12.74C57.38 9.74 57.74 7.16 58.22 5H92.96L92.87 7.79L74.33 27.86L69.02 31.82V32L72.17 31.37C77.03 31.79 80.57 33.23 82.79 35.69C85.07 38.15 86.21 41.57 86.21 45.95C86.21 49.01 85.7 51.95 84.68 54.77C83.72 57.59 82.19 60.05 80.09 62.15C77.99 64.25 75.29 65.93 71.99 67.19C68.69 68.45 64.7 69.08 60.02 69.08C58.64 69.08 57.17 68.96 55.61 68.72C54.11 68.54 52.64 68.24 51.2 67.82C49.82 67.4 48.53 66.92 47.33 66.38C46.19 65.84 45.26 65.21 44.54 64.49L48.68 56.39H50.48C50.78 56.81 51.17 57.35 51.65 58.01C52.13 58.67 52.64 59.36 53.18 60.08C53.72 60.8 54.23 61.52 54.71 62.24C55.25 62.96 55.7 63.59 56.06 64.13C56.66 64.25 57.47 64.4 58.49 64.58C59.51 64.76 60.8 64.85 62.36 64.85Z" fill="#F5F4F2"/>
</g>
</g>
<defs>
<filter id="filter0_f_397_12803" x="6" y="9" width="242" height="90" filterUnits="userSpaceOnUse" color-interpolation-filters="sRGB">
<feFlood flood-opacity="0" result="BackgroundImageFix"/>
<feBlend mode="normal" in="SourceGraphic" in2="BackgroundImageFix" result="shape"/>
<feGaussianBlur stdDeviation="15" result="effect1_foregroundBlur_397_12803"/>
</filter>
<filter id="filter1_f_397_12803" x="38.54" y="-1" width="60.4199" height="76.08" filterUnits="userSpaceOnUse" color-interpolation-filters="sRGB">
<feFlood flood-opacity="0" result="BackgroundImageFix"/>
<feBlend mode="normal" in="SourceGraphic" in2="BackgroundImageFix" result="shape"/>
<feGaussianBlur stdDeviation="3" result="effect1_foregroundBlur_397_12803"/>
</filter>
<linearGradient id="paint0_linear_397_12803" x1="48.3118" y1="54" x2="206.748" y2="52.6741" gradientUnits="userSpaceOnUse">
<stop stop-color="#F5F4F2"/>
<stop offset="0.377338" stop-color="#E2DDD7" stop-opacity="0.31"/>
<stop offset="0.9999" stop-color="white" stop-opacity="0"/>
</linearGradient>
<linearGradient id="paint1_linear_397_12803" x1="-2.33856e-06" y1="53.5" x2="55.6986" y2="50.5685" gradientUnits="userSpaceOnUse">
<stop stop-color="#B0A8A0"/>
<stop offset="0.833333" stop-color="#B0A8A0" stop-opacity="0"/>
</linearGradient>
<linearGradient id="paint2_linear_397_12803" x1="53" y1="23" x2="53" y2="83" gradientUnits="userSpaceOnUse">
<stop stop-color="#B0A8A0" stop-opacity="0.73"/>
<stop offset="0.786458" stop-color="#B0A8A0" stop-opacity="0"/>
</linearGradient>
<clipPath id="clip0_397_12803">
<rect width="222" height="116" fill="white"/>
</clipPath>
</defs>
</svg>
