<svg width="222" height="116" viewBox="0 0 222 116" fill="none" xmlns="http://www.w3.org/2000/svg">
<g clip-path="url(#clip0_397_12829)">
<g filter="url(#filter0_f_397_12829)">
<rect x="36" y="39" width="182" height="30" fill="url(#paint0_linear_397_12829)"/>
</g>
<path d="M53.5 5.29084e-06C46.4743 5.59794e-06 39.5174 1.38383 33.0264 4.07245C26.5355 6.76108 20.6377 10.7019 15.6698 15.6698C10.7018 20.6377 6.76107 26.5355 4.07244 33.0264C1.38381 39.5174 -2.95277e-06 46.4743 -2.33856e-06 53.5C-1.72435e-06 60.5257 1.38382 67.4827 4.07244 73.9736C6.76107 80.4645 10.7019 86.3623 15.6698 91.3302C20.6377 96.2981 26.5355 100.239 33.0264 102.928C39.5174 105.616 46.4743 107 53.5 107L53.5 53.5L53.5 5.29084e-06Z" fill="url(#paint1_linear_397_12829)"/>
<ellipse cx="53" cy="53" rx="30" ry="30" transform="rotate(-90 53 53)" fill="url(#paint2_linear_397_12829)"/>
<path d="M81.35 68H58.04L58.49 65.39C60.05 64.91 61.55 64.49 62.99 64.13C64.43 63.77 65.87 63.47 67.31 63.23L69.92 50.63H42.47L42.92 48.56L85.67 3.92H88.1L79.19 45.95H90.71L89.63 50.63H78.2L75.5 63.23C76.52 63.47 77.57 63.77 78.65 64.13C79.73 64.49 80.78 64.91 81.8 65.39L81.35 68ZM75.86 22.82L78.47 16.34H78.2L73.43 22.82L53.9 43.61L49.67 46.58L56.24 45.95H71L75.86 22.82Z" fill="white"/>
</g>
<defs>
<filter id="filter0_f_397_12829" x="6" y="9" width="242" height="90" filterUnits="userSpaceOnUse" color-interpolation-filters="sRGB">
<feFlood flood-opacity="0" result="BackgroundImageFix"/>
<feBlend mode="normal" in="SourceGraphic" in2="BackgroundImageFix" result="shape"/>
<feGaussianBlur stdDeviation="15" result="effect1_foregroundBlur_397_12829"/>
</filter>
<linearGradient id="paint0_linear_397_12829" x1="48.3118" y1="54" x2="206.748" y2="52.6741" gradientUnits="userSpaceOnUse">
<stop stop-color="white"/>
<stop offset="1" stop-color="white" stop-opacity="0"/>
</linearGradient>
<linearGradient id="paint1_linear_397_12829" x1="-2.36836e-06" y1="53.5" x2="54" y2="54" gradientUnits="userSpaceOnUse">
<stop stop-color="#A49C93"/>
<stop offset="0.494792" stop-color="#A49C93" stop-opacity="0.42"/>
<stop offset="1" stop-color="#CEC6BD" stop-opacity="0"/>
</linearGradient>
<linearGradient id="paint2_linear_397_12829" x1="53" y1="23" x2="53" y2="83" gradientUnits="userSpaceOnUse">
<stop stop-color="#A49C93"/>
<stop offset="0.84375" stop-color="#CEC6BD" stop-opacity="0"/>
</linearGradient>
<clipPath id="clip0_397_12829">
<rect width="222" height="116" fill="white"/>
</clipPath>
</defs>
</svg>
