<svg width="385" height="57" viewBox="0 0 385 57" fill="none" xmlns="http://www.w3.org/2000/svg">
<path d="M13.6082 40.2818C15.4396 40.5233 17.149 41.1269 18.7362 41.9721V44.1452H0.666039V41.9721C1.27652 41.6099 2.00909 41.3684 2.61957 41.0062C3.35214 40.644 4.08472 40.4026 4.81729 40.2818V7.44279C3.96263 7.20133 3.10796 6.95986 2.37538 6.7184C1.7649 6.35621 1.15442 6.11474 0.543945 5.75255V3.57938H31.19C31.19 4.30377 31.19 5.14889 31.0679 6.11474C30.9458 6.95986 30.9458 7.92572 30.8237 8.89157C30.7016 9.85743 30.5795 10.7025 30.4574 11.6684C30.3353 12.5135 30.2132 13.3586 30.0911 14.2038H27.6492L24.9631 7.32206H13.6082V22.5343H22.0328L24.3526 18.5501H26.184C26.4282 20.4818 26.5503 22.5343 26.5503 24.5867C26.5503 26.6391 26.4282 28.5708 26.184 30.3818H24.3526L22.0328 26.2769H13.6082V40.2818Z" fill="white"/>
<path d="M50.9695 44.1452H34.8528V41.8513C35.4633 41.4891 36.0738 41.2477 36.6843 41.1269C37.2948 40.8855 38.0273 40.644 38.7599 40.5233V19.2745L34.8528 18.7916V16.4977C35.4633 16.2562 36.1959 16.0148 37.0506 15.7733C37.9052 15.5318 38.882 15.2904 39.8588 15.1696C40.8355 14.9282 41.8123 14.8074 42.7891 14.6867C43.7658 14.566 44.4984 14.4452 45.231 14.3245H47.1845V40.4026C47.9171 40.644 48.6497 40.7648 49.2601 41.0062C49.8706 41.2477 50.4811 41.4891 50.9695 41.7306V44.1452ZM37.661 5.75256C37.661 4.42451 38.1494 3.33793 39.1262 2.61354C40.103 1.88915 41.3239 1.40622 42.7891 1.40622C44.2542 1.40622 45.4752 1.76841 46.4519 2.61354C47.4287 3.45866 47.9171 4.42451 47.9171 5.75256C47.9171 7.08061 47.4287 8.16719 46.4519 8.89158C45.4752 9.61597 44.2542 10.0989 42.7891 10.0989C41.3239 10.0989 40.103 9.73671 39.1262 8.89158C38.1494 8.04646 37.661 6.95988 37.661 5.75256Z" fill="white"/>
<path d="M90.6506 44.1452H75.1444V41.8513C75.6328 41.6099 76.1212 41.3684 76.6096 41.1269C77.0979 40.8855 77.7084 40.644 78.3189 40.4026V26.8806C78.3189 24.466 77.9526 22.5343 77.22 21.2062C76.4875 19.7574 75.2665 19.1538 73.4351 19.1538C71.9699 19.1538 70.6269 19.6367 69.528 20.6026C68.4291 21.5684 67.6966 22.7757 67.0861 24.466V40.5233C67.6966 40.644 68.3071 40.8855 68.6733 41.1269C69.1617 41.3684 69.6501 41.6099 70.2606 41.9721V44.266H54.7544V41.9721C55.7312 41.4891 57.0742 41.0062 58.6615 40.5233V19.2745L54.7544 18.7916V16.4977C55.2428 16.2562 55.9754 16.0148 56.708 15.894C57.5626 15.6526 58.4173 15.4111 59.3941 15.2904C60.3708 15.0489 61.3476 14.9282 62.3244 14.8074C63.3011 14.6867 64.2779 14.566 65.1326 14.4452H67.0861V20.3611C67.9408 18.7916 69.1617 17.3428 70.749 16.1355C72.3362 14.9282 74.4118 14.3245 76.7316 14.3245C78.1968 14.3245 79.662 14.566 80.8829 14.9282C82.1039 15.2904 83.0806 15.894 83.9353 16.8599C84.79 17.8257 85.4004 19.033 85.8888 20.6026C86.3772 22.1721 86.6214 24.1038 86.6214 26.5184V40.4026C88.2086 40.644 89.4296 41.1269 90.5285 41.8513V44.1452H90.6506Z" fill="white"/>
<path d="M114.826 38.4709C114.581 39.316 114.337 40.1611 113.727 40.8855C113.116 41.6099 112.628 42.3343 111.895 42.9379C111.163 43.5416 110.43 44.0245 109.453 44.3867C108.599 44.7489 107.622 44.8696 106.523 44.8696C102.616 44.8696 99.6856 43.6623 97.7321 41.2477C95.7786 38.833 94.8018 35.0904 94.8018 30.1404C94.8018 27.605 95.1681 25.3111 95.9007 23.5001C96.6332 21.5684 97.61 19.9989 98.831 18.6708C100.174 17.3428 101.639 16.3769 103.471 15.7733C105.302 15.1696 107.256 14.8074 109.453 14.8074C110.186 14.8074 110.796 14.8074 111.163 14.8074C111.651 14.8074 112.139 14.9282 112.506 14.9282C112.994 14.9282 113.36 15.0489 113.727 15.1696C114.093 15.2904 114.581 15.4111 115.07 15.5318V5.39036L110.674 4.90743V2.61353C111.163 2.37207 112.017 2.1306 112.872 2.00987C113.849 1.76841 114.826 1.64768 115.924 1.52694C117.023 1.28548 118 1.16475 118.977 1.04402C119.954 0.923286 120.808 0.802555 121.541 0.681824H123.494V40.1611L127.401 40.644V42.6965C126.913 42.9379 126.18 43.1794 125.326 43.4209C124.471 43.6623 123.616 43.9038 122.64 44.0245C121.663 44.266 120.808 44.3867 119.831 44.5074C118.977 44.6282 118.244 44.7489 117.634 44.8696H115.68L115.192 38.5916H114.826V38.4709ZM109.453 40.2818C110.796 40.2818 112.017 39.7989 112.872 38.9538C113.849 38.1087 114.459 36.6599 114.948 34.6074V19.033C114.459 18.6708 113.849 18.4294 112.994 18.3087C112.261 18.0672 111.285 18.0672 110.186 18.0672C107.866 18.0672 106.279 19.033 105.302 21.0855C104.325 23.1379 103.837 26.0355 103.837 29.8989C103.837 33.0379 104.325 35.5733 105.18 37.3843C106.035 39.316 107.5 40.2818 109.453 40.2818Z" fill="white"/>
<path d="M183.077 44.1452H165.495V41.9721C166.228 41.6099 167.082 41.2477 167.815 41.0062C168.548 40.7647 169.402 40.5233 170.257 40.2818V16.1355L170.501 9.3745H170.013L168.059 15.5318L156.704 44.266H154.018L142.785 15.7733L140.71 9.0123H140.221V16.3769V40.1611C140.954 40.2818 141.809 40.5233 142.663 40.8855C143.518 41.2477 144.373 41.6099 145.227 42.0928V44.266H130.942V42.0928C131.553 41.7306 132.285 41.3684 133.262 41.0062C134.239 40.5233 135.093 40.2818 135.948 40.1611V7.44279C135.215 7.32206 134.361 7.0806 133.384 6.83913C132.529 6.59767 131.797 6.23547 131.064 5.75255V3.57938H146.937L155.85 27.1221L157.559 32.6757L159.268 27.0013L168.425 3.57938H182.955V5.75255C182.344 6.11474 181.612 6.47694 180.757 6.83913C180.025 7.0806 179.292 7.32206 178.437 7.44279V40.4025C179.292 40.5233 180.025 40.7647 180.757 41.1269C181.49 41.4891 182.222 41.7306 182.833 42.0928V44.1452H183.077Z" fill="white"/>
<path d="M187.717 18.9123C187.106 18.7916 186.618 18.5501 186.129 18.3087C185.641 18.0672 185.153 17.8257 184.664 17.4635V15.1696H200.048V17.4635C199.194 17.9465 198.095 18.4294 196.752 18.9123L202.612 33.4001L203.589 37.1428H203.711L204.688 33.4001L209.205 18.9123C207.985 18.6709 207.008 18.1879 206.031 17.4635V15.1696H217.386V17.4635C216.531 17.9465 215.432 18.4294 214.089 18.9123L204.566 44.266C203.589 46.6806 202.734 48.7331 201.758 50.3026C200.781 51.8721 199.926 53.2001 198.949 54.0452C197.973 55.0111 197.118 55.6148 196.141 55.977C195.164 56.3391 194.31 56.5806 193.333 56.7013C192.967 56.3391 192.6 55.8562 192.234 55.3733C191.868 54.8904 191.624 54.2867 191.38 53.683C191.135 53.0794 190.891 52.4757 190.769 51.8721C190.647 51.2684 190.525 50.6648 190.525 50.1818L191.257 48.7331H198.461C198.827 48.2501 199.072 47.6465 199.316 47.0428C199.56 46.4391 199.926 45.4733 200.292 44.266L187.717 18.9123Z" fill="white"/>
<path d="M236.555 44.1452H218.729V41.9721C219.339 41.6099 220.194 41.2477 221.049 41.0062C221.903 40.644 222.758 40.5233 223.613 40.2818V7.44279C222.636 7.32206 221.781 7.0806 220.927 6.7184C220.072 6.35621 219.339 6.11474 218.851 5.75255V3.57938H236.555V5.75255C235.944 6.11474 235.334 6.47694 234.601 6.83913C233.869 7.20133 233.136 7.32206 232.404 7.44279V21.4477H247.91V7.44279C247.055 7.32206 246.323 7.0806 245.59 6.7184C244.979 6.35621 244.369 6.11474 243.759 5.75255V3.57938H261.462V5.75255C260.852 6.23547 259.997 6.47694 259.143 6.83913C258.288 7.20133 257.433 7.32206 256.579 7.44279V40.2818C257.433 40.4026 258.288 40.644 259.143 41.0062C259.997 41.3684 260.73 41.6099 261.34 41.9721V44.1452H243.636V41.9721C244.247 41.6099 244.857 41.2477 245.59 41.0062C246.323 40.644 247.055 40.5233 247.788 40.2818V25.3111H232.282V40.2818C233.014 40.4026 233.747 40.644 234.479 40.8855C235.212 41.1269 235.822 41.4891 236.433 41.9721V44.1452H236.555Z" fill="white"/>
<path d="M265.614 29.6574C265.614 27.2428 265.98 25.1904 266.713 23.3794C267.445 21.4477 268.544 19.8782 269.765 18.5501C271.108 17.2221 272.817 16.2562 274.649 15.5318C276.602 14.8074 278.678 14.4452 281.12 14.4452C283.806 14.4452 286.248 14.8074 288.201 15.6526C290.155 16.3769 291.864 17.4635 293.085 18.7916C294.428 20.1196 295.283 21.6891 295.893 23.6208C296.504 25.4318 296.748 27.4843 296.748 29.6574C296.748 32.0721 296.382 34.1245 295.649 36.0562C294.917 37.8672 293.94 39.4367 292.597 40.7647C291.254 42.0928 289.667 43.0586 287.713 43.783C285.759 44.5074 283.684 44.8696 281.242 44.8696C278.556 44.8696 276.236 44.5074 274.282 43.783C272.329 43.0586 270.742 41.9721 269.399 40.644C268.056 39.316 267.201 37.7465 266.468 35.8147C265.98 34.0038 265.614 31.9513 265.614 29.6574ZM274.771 29.6574C274.771 31.3477 274.893 33.0379 275.015 34.4867C275.259 35.9355 275.626 37.1428 276.236 38.1086C276.846 39.0745 277.579 39.9196 278.434 40.5233C279.41 41.0062 280.631 41.3684 282.097 41.3684C282.951 41.3684 283.684 41.1269 284.416 40.7647C285.149 40.2818 285.759 39.6782 286.248 38.833C286.736 37.8672 287.103 36.6599 287.347 35.2111C287.591 33.7623 287.713 31.8306 287.713 29.6574C287.713 27.8465 287.591 26.2769 287.347 24.8282C287.103 23.3794 286.736 22.1721 286.248 21.2062C285.759 20.2404 285.027 19.3952 284.172 18.9123C283.318 18.3087 282.097 18.0672 280.754 18.0672C279.777 18.0672 278.8 18.3087 278.067 18.6708C277.335 19.033 276.724 19.7574 276.236 20.6026C275.748 21.4477 275.381 22.655 275.015 24.2245C274.771 25.6733 274.771 27.4843 274.771 29.6574Z" fill="white"/>
<path d="M334.598 44.1452H319.946V41.8513C320.313 41.6099 320.801 41.3684 321.289 41.1269C321.778 40.8855 322.388 40.644 322.877 40.4026V28.8123C322.877 27.0013 322.877 25.5526 322.754 24.3452C322.632 23.1379 322.51 22.0513 322.144 21.3269C321.778 20.4818 321.411 19.8782 320.801 19.6367C320.313 19.2745 319.58 19.033 318.725 19.033C317.504 19.033 316.405 19.516 315.429 20.4818C314.574 21.4477 313.841 22.655 313.475 24.2245V40.4026C314.574 40.7647 315.551 41.1269 316.405 41.8513V44.1452H301.143V41.8513C301.632 41.6099 302.242 41.3684 302.975 41.1269C303.708 40.8855 304.318 40.644 305.051 40.5233V19.2745L301.143 18.7916V16.4977C301.754 16.2562 302.487 16.0147 303.463 15.7733C304.44 15.5318 305.417 15.2904 306.394 15.1696C307.37 14.9282 308.347 14.8074 309.202 14.6867C310.179 14.566 310.911 14.4452 311.522 14.4452H313.475V21.0855C314.086 19.2745 315.184 17.705 316.772 16.4977C318.359 15.1696 320.313 14.566 322.51 14.566C323.487 14.566 324.342 14.6867 325.318 14.8074C326.173 15.0489 327.028 15.4111 327.76 15.894C328.493 16.3769 329.226 17.1013 329.714 18.0672C330.202 19.033 330.691 20.2404 330.935 21.6891C331.667 19.516 332.766 17.8257 334.476 16.4977C336.185 15.1696 338.139 14.566 340.458 14.566C341.923 14.566 343.144 14.8074 344.243 15.1696C345.342 15.5318 346.319 16.1355 347.051 17.1013C347.784 18.0672 348.395 19.2745 348.761 20.844C349.127 22.4135 349.371 24.466 349.371 26.8806V40.644C350.714 40.8855 351.935 41.3684 353.278 42.0928V44.3867H338.016V42.0928C338.871 41.4891 339.848 41.0062 340.947 40.644V27.9672C340.947 24.9489 340.702 22.7757 340.092 21.3269C339.604 19.8782 338.383 19.1538 336.429 19.1538C334.964 19.1538 333.865 19.6367 333.133 20.7233C332.4 21.8099 331.79 23.1379 331.423 24.9489V40.644C332.034 40.8855 332.644 41.0062 333.133 41.2477C333.621 41.4891 334.231 41.7306 334.598 41.9721V44.1452Z" fill="white"/>
<path d="M383.924 39.316C383.558 39.9196 383.07 40.644 382.459 41.3684C381.849 41.9721 380.994 42.5757 379.895 43.1794C378.918 43.6623 377.82 44.1452 376.477 44.3867C375.134 44.7489 373.79 44.8696 372.203 44.8696C369.761 44.8696 367.686 44.5074 365.732 43.783C363.901 43.0586 362.313 41.9721 361.093 40.7647C359.872 39.4367 358.895 37.8672 358.162 35.9355C357.552 34.1245 357.185 31.9513 357.185 29.6574C357.185 24.7074 358.528 20.9647 361.093 18.3087C363.657 15.6526 367.319 14.4452 371.959 14.4452C373.913 14.4452 375.866 14.6867 377.575 15.2904C379.285 15.7733 380.75 16.7391 381.971 17.9465C383.192 19.1538 383.924 20.844 384.413 22.7757C384.901 24.8282 384.901 27.2428 384.413 30.1404H366.465C366.465 33.1586 367.319 35.5733 368.785 37.3843C370.372 39.1952 372.692 40.1611 375.622 40.1611C376.965 40.1611 378.186 39.9196 379.651 39.5574C381.116 39.1952 382.093 38.7123 382.948 38.1086L383.924 39.316ZM371.837 17.8257C371.104 17.8257 370.372 17.9465 369.761 18.1879C369.151 18.4294 368.662 18.9123 368.174 19.6367C367.686 20.3611 367.441 21.3269 367.075 22.5343C366.831 23.7416 366.587 25.3111 366.465 27.1221H375.866C376.11 24.1038 375.988 21.8099 375.378 20.1196C374.767 18.6708 373.546 17.8257 371.837 17.8257Z" fill="white"/>
</svg>
