<svg width="111" height="97" viewBox="0 0 111 97" fill="none" xmlns="http://www.w3.org/2000/svg">
<path d="M54.5768 96.31V72.2844H44.3207V96.31C46.0301 96.4307 47.7394 96.5515 49.4488 96.5515C51.1581 96.5515 52.8674 96.4307 54.5768 96.31Z" fill="#98D6F9"/>
<path d="M49.4488 0.44902C22.5877 0.44902 0.854683 21.9393 0.854683 48.5002C0.854683 64.799 9.03509 79.1661 21.6109 87.8588V56.5893L49.4488 29.4246L77.2866 56.5893V87.8588C89.8624 79.1661 98.0428 64.799 98.0428 48.5002C98.0428 21.9393 76.3098 0.44902 49.4488 0.44902Z" fill="#CEC6BD"/>
<path d="M93.0369 72.8881C93.0369 72.8881 91.2055 79.649 89.9845 83.3917L103.659 96.9137L110.497 90.1527L93.0369 72.8881Z" fill="#CEC6BD"/>
</svg>
