<svg width="428" height="454" viewBox="0 0 428 454" fill="none" xmlns="http://www.w3.org/2000/svg">
<path d="M297.129 356.24C295.119 368.246 292.879 380.219 290.342 392.127L359.138 350.319C361.642 338.378 363.883 326.405 365.892 314.399L297.129 356.24Z" fill="url(#paint0_linear_397_13025)"/>
<path d="M290.373 392.127L337.226 454L406.088 412.291L359.169 350.319L290.373 392.127Z" fill="url(#paint1_linear_397_13025)"/>
<path d="M337.227 454C363.355 429.428 393.997 410.416 425.792 393.508C418.869 400.019 406.233 412.174 406.233 412.174C406.233 412.174 360.621 441.573 337.227 454Z" fill="url(#paint2_linear_397_13025)"/>
<path d="M337.226 453.967L290.373 392.094C292.877 380.186 295.151 368.213 297.16 356.207L358.631 435.559L337.226 453.967Z" fill="url(#paint3_linear_397_13025)"/>
<path d="M140.161 7.07216C146.389 4.37487 152.814 2.99333 159.107 1.80915C159.107 1.74337 159.14 1.71047 159.173 1.64468C154.692 2.00652 132.682 7.82872 132.682 7.82872C132.682 7.82872 68.8941 32.5648 39.8336 60.9522C8.63147 91.4447 -1.94497 141.443 0.59206 184.041C3.12909 226.836 20.4726 271.107 41.3163 305.682C52.2442 323.809 74.967 348.182 74.967 348.182L143.664 305.518C73.9763 236.506 16.2096 60.6561 140.161 7.07216Z" fill="url(#paint4_linear_397_13025)"/>
<path d="M242.961 282.327L251.429 397.258L320.225 355.45L311.691 240.355L242.961 282.327Z" fill="url(#paint5_linear_397_13025)"/>
<path d="M157.197 170.127L242.962 282.327L311.692 240.355L216.208 115.49L157.197 170.127Z" fill="url(#paint6_linear_397_13025)"/>
<path d="M143.475 305.138L149.9 393.622L218.052 357.128L211.561 268.512L143.475 305.138Z" fill="url(#paint7_linear_397_13025)"/>
<path d="M175.845 314.834L143.357 305.657L211.562 268.512L244.082 277.722L175.845 314.834Z" fill="url(#paint8_linear_397_13025)"/>
<path d="M179.272 403.049L181.282 403.443L250.606 366.272C239.502 364.233 228.597 361.174 218.053 357.095L148.762 394.299C158.646 398.148 168.86 401.042 179.272 403.049Z" fill="url(#paint9_linear_397_13025)"/>
<path d="M181.555 403.239L175.652 314.264L244.08 277.722L250.604 366.305L181.555 403.239Z" fill="url(#paint10_linear_397_13025)"/>
<path d="M175.653 314.264L181.556 403.619C170.452 401.612 159.546 398.553 149.036 394.474L143.166 305.086L175.653 314.264Z" fill="url(#paint11_linear_397_13025)"/>
<path d="M406.525 407.035L362.923 349.443C364.756 340.637 366.447 331.782 368.008 322.918L421.118 393.099L406.525 407.035ZM131.762 190.544L139.414 295.96C98.731 250.912 66.9233 186.982 69.9853 126.129C71.4964 96.9776 75.8609 67.3309 93.3285 44.3538L93.3333 44.3475C115.573 14.9551 151.819 2.13512 188.348 5.75234C234.724 10.4218 274.92 42.0072 304.672 77.1284C333.833 111.555 358.087 153.816 366.87 198.092C368.239 205.412 369.313 212.467 370.127 219.259L370.136 219.334L370.148 219.408C370.703 222.801 371.214 226.283 371.499 229.572L371.5 229.592L371.502 229.612C376.034 275.749 361.264 322.733 323.347 349.285L315.248 240.129L315.171 239.089L314.538 238.261L218.987 113.363L216.653 110.313L213.832 112.919L132.878 187.72L131.64 188.863L131.762 190.544ZM221.38 354.648L215.417 273.242L240.771 280.422L246.778 361.988C238.13 360.176 229.653 357.729 221.38 354.648Z" stroke="url(#paint12_linear_397_13025)" stroke-width="7" stroke-miterlimit="10"/>
<defs>
<linearGradient id="paint0_linear_397_13025" x1="361.798" y1="326.154" x2="306.359" y2="353.46" gradientUnits="userSpaceOnUse">
<stop stop-color="#3F3F3F"/>
<stop offset="1" stop-color="#3F3F3F" stop-opacity="0"/>
</linearGradient>
<linearGradient id="paint1_linear_397_13025" x1="348.23" y1="350.319" x2="348.23" y2="454" gradientUnits="userSpaceOnUse">
<stop stop-color="#3F3F3F"/>
<stop offset="1" stop-color="#3F3F3F" stop-opacity="0"/>
</linearGradient>
<linearGradient id="paint2_linear_397_13025" x1="381.509" y1="393.508" x2="327.174" y2="476.594" gradientUnits="userSpaceOnUse">
<stop stop-color="#3F3F3F"/>
<stop offset="1" stop-color="#3F3F3F" stop-opacity="0"/>
</linearGradient>
<linearGradient id="paint3_linear_397_13025" x1="318.51" y1="464.17" x2="301.464" y2="360.468" gradientUnits="userSpaceOnUse">
<stop stop-color="#3F3F3F"/>
<stop offset="1" stop-color="#3F3F3F" stop-opacity="0"/>
</linearGradient>
<linearGradient id="paint4_linear_397_13025" x1="94.6732" y1="76.281" x2="9.29445" y2="475.49" gradientUnits="userSpaceOnUse">
<stop stop-color="#444444"/>
<stop offset="1" stop-color="#3F3F3F" stop-opacity="0"/>
</linearGradient>
<linearGradient id="paint5_linear_397_13025" x1="289.918" y1="240.649" x2="281.518" y2="447.916" gradientUnits="userSpaceOnUse">
<stop stop-color="#3F3F3F"/>
<stop offset="0.0001" stop-color="#3F3F3F"/>
<stop offset="1" stop-color="#3F3F3F" stop-opacity="0"/>
</linearGradient>
<linearGradient id="paint6_linear_397_13025" x1="293.514" y1="218.825" x2="149.609" y2="172.5" gradientUnits="userSpaceOnUse">
<stop stop-color="#3F3F3F" stop-opacity="0.55"/>
<stop offset="1" stop-color="#3F3F3F" stop-opacity="0"/>
</linearGradient>
<linearGradient id="paint7_linear_397_13025" x1="180.458" y1="268.512" x2="180.458" y2="399.002" gradientUnits="userSpaceOnUse">
<stop stop-color="#3F3F3F"/>
<stop offset="1" stop-color="#3F3F3F" stop-opacity="0"/>
</linearGradient>
<linearGradient id="paint8_linear_397_13025" x1="193.474" y1="268.512" x2="193.474" y2="319.695" gradientUnits="userSpaceOnUse">
<stop stop-color="#3F3F3F"/>
<stop offset="1" stop-color="#3F3F3F" stop-opacity="0"/>
</linearGradient>
<linearGradient id="paint9_linear_397_13025" x1="199.948" y1="357.095" x2="199.948" y2="408.146" gradientUnits="userSpaceOnUse">
<stop stop-color="#3F3F3F"/>
<stop offset="1" stop-color="#3F3F3F" stop-opacity="0"/>
</linearGradient>
<linearGradient id="paint10_linear_397_13025" x1="212.977" y1="277.722" x2="212.977" y2="408.146" gradientUnits="userSpaceOnUse">
<stop stop-color="#3F3F3F"/>
<stop offset="1" stop-color="#3F3F3F" stop-opacity="0"/>
</linearGradient>
<linearGradient id="paint11_linear_397_13025" x1="162.336" y1="310.517" x2="162.336" y2="408.146" gradientUnits="userSpaceOnUse">
<stop stop-color="#3F3F3F"/>
<stop offset="1" stop-color="#3F3F3F" stop-opacity="0"/>
</linearGradient>
<linearGradient id="paint12_linear_397_13025" x1="338.52" y1="81.3309" x2="231.407" y2="366.427" gradientUnits="userSpaceOnUse">
<stop stop-color="#9FC884"/>
<stop offset="0.583333" stop-color="#98D6F9"/>
</linearGradient>
</defs>
</svg>
