<svg width="222" height="116" viewBox="0 0 222 116" fill="none" xmlns="http://www.w3.org/2000/svg">
<g clip-path="url(#clip0_111_12825)">
<g filter="url(#filter0_f_111_12825)">
<rect x="36" y="39" width="182" height="30" fill="url(#paint0_linear_111_12825)"/>
</g>
<path d="M53.5 5.29084e-06C46.4743 5.59794e-06 39.5174 1.38383 33.0264 4.07245C26.5355 6.76108 20.6377 10.7019 15.6698 15.6698C10.7018 20.6377 6.76107 26.5355 4.07244 33.0264C1.38381 39.5174 -2.95277e-06 46.4743 -2.33856e-06 53.5C-1.72435e-06 60.5257 1.38382 67.4827 4.07244 73.9736C6.76107 80.4645 10.7019 86.3623 15.6698 91.3302C20.6377 96.2981 26.5355 100.239 33.0264 102.928C39.5174 105.616 46.4743 107 53.5 107L53.5 53.5L53.5 5.29084e-06Z" fill="url(#paint1_linear_111_12825)"/>
<ellipse cx="53" cy="53" rx="30" ry="30" transform="rotate(-90 53 53)" fill="url(#paint2_linear_111_12825)"/>
<path d="M60.38 22.55H58.13C57.83 20.81 57.56 18.77 57.32 16.43C57.14 14.09 57.08 11.87 57.14 9.77C59.66 8.03 62.3 6.62 65.06 5.54C67.82 4.46 70.91 3.92 74.33 3.92C77.33 3.92 79.82 4.25 81.8 4.91C83.84 5.57 85.46 6.5 86.66 7.7C87.92 8.84 88.82 10.19 89.36 11.75C89.9 13.25 90.17 14.87 90.17 16.61C90.17 20.09 89.12 23.69 87.02 27.41C84.98 31.07 82.37 34.7 79.19 38.3C76.07 41.84 72.65 45.26 68.93 48.56C65.21 51.8 61.73 54.71 58.49 57.29L53.99 60.8V61.16L59.03 60.62H74.51L81.08 50.54H83.33C83.27 51.98 83.15 53.51 82.97 55.13C82.79 56.69 82.55 58.25 82.25 59.81C82.01 61.37 81.74 62.87 81.44 64.31C81.14 65.69 80.87 66.92 80.63 68H43.46L44.09 65.12C45.89 63.68 48.05 61.88 50.57 59.72C53.09 57.56 55.73 55.19 58.49 52.61C61.31 49.97 64.1 47.15 66.86 44.15C69.62 41.15 72.08 38.12 74.24 35.06C76.46 31.94 78.26 28.82 79.64 25.7C81.02 22.58 81.71 19.58 81.71 16.7C81.71 14.3 80.96 12.35 79.46 10.85C78.02 9.35 75.86 8.6 72.98 8.6C70.46 8.6 68.18 8.96 66.14 9.68L60.38 22.55Z" fill="white"/>
</g>
<defs>
<filter id="filter0_f_111_12825" x="6" y="9" width="242" height="90" filterUnits="userSpaceOnUse" color-interpolation-filters="sRGB">
<feFlood flood-opacity="0" result="BackgroundImageFix"/>
<feBlend mode="normal" in="SourceGraphic" in2="BackgroundImageFix" result="shape"/>
<feGaussianBlur stdDeviation="15" result="effect1_foregroundBlur_111_12825"/>
</filter>
<linearGradient id="paint0_linear_111_12825" x1="48.3118" y1="54" x2="206.748" y2="52.6741" gradientUnits="userSpaceOnUse">
<stop stop-color="#CEC6BD" stop-opacity="0.36"/>
<stop offset="1" stop-color="#CEC6BD" stop-opacity="0"/>
</linearGradient>
<linearGradient id="paint1_linear_111_12825" x1="-2.36836e-06" y1="53.5" x2="54" y2="54" gradientUnits="userSpaceOnUse">
<stop stop-color="#CEC6BD" stop-opacity="0.75"/>
<stop offset="0.494792" stop-color="#CEC6BD" stop-opacity="0.33"/>
<stop offset="1" stop-color="#CEC6BD" stop-opacity="0"/>
</linearGradient>
<linearGradient id="paint2_linear_111_12825" x1="53" y1="23" x2="53" y2="83" gradientUnits="userSpaceOnUse">
<stop stop-color="#CEC6BD"/>
<stop offset="0.84375" stop-color="#CEC6BD" stop-opacity="0"/>
</linearGradient>
<clipPath id="clip0_111_12825">
<rect width="222" height="116" fill="white"/>
</clipPath>
</defs>
</svg>
