<svg width="222" height="116" viewBox="0 0 222 116" fill="none" xmlns="http://www.w3.org/2000/svg">
<g clip-path="url(#clip0_111_12896)">
<g filter="url(#filter0_f_111_12896)">
<rect x="36" y="39" width="182" height="30" fill="url(#paint0_linear_111_12896)"/>
</g>
<path d="M53.5 5.29084e-06C46.4743 5.59794e-06 39.5174 1.38383 33.0264 4.07245C26.5355 6.76108 20.6377 10.7019 15.6698 15.6698C10.7018 20.6377 6.76107 26.5355 4.07244 33.0264C1.38381 39.5174 -2.95277e-06 46.4743 -2.33856e-06 53.5C-1.72435e-06 60.5257 1.38382 67.4827 4.07244 73.9736C6.76107 80.4645 10.7019 86.3623 15.6698 91.3302C20.6377 96.2981 26.5355 100.239 33.0264 102.928C39.5174 105.616 46.4743 107 53.5 107L53.5 53.5L53.5 5.29084e-06Z" fill="url(#paint1_linear_111_12896)"/>
<ellipse cx="53" cy="53" rx="30" ry="30" transform="rotate(-90 53 53)" fill="url(#paint2_linear_111_12896)"/>
<g filter="url(#filter1_f_111_12896)">
<path d="M92.69 0.0499951H94.94C94.76 0.949998 94.49 1.97 94.13 3.11C93.83 4.19 93.47 5.3 93.05 6.44C92.69 7.52 92.27 8.57 91.79 9.59C91.37 10.61 90.98 11.45 90.62 12.11H68.39L62.63 29.48H67.04C72.8 29.48 77.24 30.77 80.36 33.35C83.54 35.93 85.13 39.71 85.13 44.69C85.13 48.29 84.53 51.59 83.33 54.59C82.13 57.59 80.42 60.17 78.2 62.33C76.04 64.49 73.4 66.17 70.28 67.37C67.22 68.51 63.77 69.08 59.93 69.08C58.49 69.08 57.05 68.96 55.61 68.72C54.23 68.54 52.88 68.24 51.56 67.82C50.24 67.4 49.04 66.92 47.96 66.38C46.94 65.78 46.07 65.15 45.35 64.49L49.58 56.39H51.38C51.68 56.81 52.01 57.35 52.37 58.01C52.79 58.67 53.21 59.36 53.63 60.08C54.05 60.8 54.47 61.52 54.89 62.24C55.31 62.96 55.7 63.59 56.06 64.13C56.66 64.25 57.32 64.4 58.04 64.58C58.76 64.76 59.66 64.85 60.74 64.85C63.62 64.85 66.11 64.37 68.21 63.41C70.31 62.39 72.02 61.04 73.34 59.36C74.72 57.68 75.74 55.76 76.4 53.6C77.06 51.44 77.39 49.22 77.39 46.94C77.39 42.98 76.07 40.16 73.43 38.48C70.85 36.8 67.22 36.02 62.54 36.14L56.15 36.23L66.32 5H87.83L92.69 0.0499951Z" fill="#919191"/>
</g>
</g>
<defs>
<filter id="filter0_f_111_12896" x="6" y="9" width="242" height="90" filterUnits="userSpaceOnUse" color-interpolation-filters="sRGB">
<feFlood flood-opacity="0" result="BackgroundImageFix"/>
<feBlend mode="normal" in="SourceGraphic" in2="BackgroundImageFix" result="shape"/>
<feGaussianBlur stdDeviation="15" result="effect1_foregroundBlur_111_12896"/>
</filter>
<filter id="filter1_f_111_12896" x="39.35" y="-5.94995" width="61.5901" height="81.03" filterUnits="userSpaceOnUse" color-interpolation-filters="sRGB">
<feFlood flood-opacity="0" result="BackgroundImageFix"/>
<feBlend mode="normal" in="SourceGraphic" in2="BackgroundImageFix" result="shape"/>
<feGaussianBlur stdDeviation="3" result="effect1_foregroundBlur_111_12896"/>
</filter>
<linearGradient id="paint0_linear_111_12896" x1="48.3118" y1="54" x2="206.748" y2="52.6741" gradientUnits="userSpaceOnUse">
<stop stop-color="#313131"/>
<stop offset="0.377338" stop-color="#5C5C5C" stop-opacity="0.26"/>
<stop offset="1" stop-color="#313131" stop-opacity="0"/>
</linearGradient>
<linearGradient id="paint1_linear_111_12896" x1="-2.33856e-06" y1="53.5" x2="55.6986" y2="50.5685" gradientUnits="userSpaceOnUse">
<stop stop-color="#313131"/>
<stop offset="1" stop-color="#313131" stop-opacity="0"/>
</linearGradient>
<linearGradient id="paint2_linear_111_12896" x1="53" y1="23" x2="53" y2="83" gradientUnits="userSpaceOnUse">
<stop stop-color="#313131"/>
<stop offset="1" stop-color="#313131" stop-opacity="0"/>
</linearGradient>
<clipPath id="clip0_111_12896">
<rect width="222" height="116" fill="white"/>
</clipPath>
</defs>
</svg>
