<svg width="50" height="40" viewBox="0 0 50 40" fill="none" xmlns="http://www.w3.org/2000/svg">
<g clip-path="url(#clip0_280_6609)">
<path d="M24.9747 10.9809C27.9137 10.9809 28.2618 10.9937 29.4176 11.0453C30.4919 11.0926 31.0719 11.273 31.4587 11.4234C31.97 11.6211 32.3395 11.8617 32.7219 12.2441C33.1087 12.6309 33.345 12.9961 33.5426 13.5074C33.693 13.8941 33.8735 14.4785 33.9208 15.5484C33.9723 16.7086 33.9852 17.0566 33.9852 19.9914C33.9852 22.9305 33.9723 23.2785 33.9208 24.4344C33.8735 25.5086 33.693 26.0887 33.5426 26.4754C33.345 26.9867 33.1044 27.3563 32.7219 27.7387C32.3352 28.1254 31.97 28.3617 31.4587 28.5594C31.0719 28.7098 30.4876 28.8902 29.4176 28.9375C28.2575 28.9891 27.9094 29.002 24.9747 29.002C22.0356 29.002 21.6876 28.9891 20.5317 28.9375C19.4575 28.8902 18.8774 28.7098 18.4907 28.5594C17.9794 28.3617 17.6098 28.1211 17.2274 27.7387C16.8407 27.352 16.6044 26.9867 16.4067 26.4754C16.2563 26.0887 16.0758 25.5043 16.0286 24.4344C15.977 23.2742 15.9641 22.9262 15.9641 19.9914C15.9641 17.0523 15.977 16.7043 16.0286 15.5484C16.0758 14.4742 16.2563 13.8941 16.4067 13.5074C16.6044 12.9961 16.845 12.6266 17.2274 12.2441C17.6141 11.8574 17.9794 11.6211 18.4907 11.4234C18.8774 11.273 19.4618 11.0926 20.5317 11.0453C21.6876 10.9937 22.0356 10.9809 24.9747 10.9809ZM24.9747 9C21.9883 9 21.6145 9.01289 20.4415 9.06445C19.2727 9.11602 18.4692 9.30508 17.7731 9.57578C17.0469 9.85937 16.4325 10.2332 15.8223 10.8477C15.2079 11.4578 14.834 12.0723 14.5505 12.7941C14.2797 13.4945 14.0907 14.2937 14.0391 15.4625C13.9876 16.6398 13.9747 17.0137 13.9747 20C13.9747 22.9863 13.9876 23.3602 14.0391 24.5332C14.0907 25.702 14.2797 26.5055 14.5505 27.2016C14.834 27.9277 15.2079 28.5422 15.8223 29.1523C16.4325 29.7625 17.0469 30.1406 17.7688 30.4199C18.4692 30.6906 19.2684 30.8797 20.4372 30.9312C21.6102 30.9828 21.984 30.9957 24.9704 30.9957C27.9567 30.9957 28.3305 30.9828 29.5036 30.9312C30.6723 30.8797 31.4758 30.6906 32.1719 30.4199C32.8938 30.1406 33.5083 29.7625 34.1184 29.1523C34.7286 28.5422 35.1067 27.9277 35.386 27.2059C35.6567 26.5055 35.8458 25.7063 35.8973 24.5375C35.9489 23.3645 35.9618 22.9906 35.9618 20.0043C35.9618 17.018 35.9489 16.6441 35.8973 15.4711C35.8458 14.3023 35.6567 13.4988 35.386 12.8027C35.1153 12.0723 34.7415 11.4578 34.127 10.8477C33.5169 10.2375 32.9024 9.85938 32.1805 9.58008C31.4801 9.30937 30.6809 9.12031 29.5122 9.06875C28.3348 9.01289 27.961 9 24.9747 9Z" fill="#5C5C5C"/>
<path d="M24.9747 14.3496C21.8551 14.3496 19.3243 16.8805 19.3243 20C19.3243 23.1195 21.8551 25.6504 24.9747 25.6504C28.0942 25.6504 30.6251 23.1195 30.6251 20C30.6251 16.8805 28.0942 14.3496 24.9747 14.3496ZM24.9747 23.6652C22.9508 23.6652 21.3094 22.0238 21.3094 20C21.3094 17.9762 22.9508 16.3348 24.9747 16.3348C26.9985 16.3348 28.6399 17.9762 28.6399 20C28.6399 22.0238 26.9985 23.6652 24.9747 23.6652Z" fill="#5C5C5C"/>
<path d="M32.1676 14.1261C32.1676 14.8566 31.5747 15.4453 30.8485 15.4453C30.118 15.4453 29.5294 14.8523 29.5294 14.1261C29.5294 13.3957 30.1223 12.807 30.8485 12.807C31.5747 12.807 32.1676 13.4 32.1676 14.1261Z" fill="#5C5C5C"/>
</g>
<defs>
<clipPath id="clip0_280_6609">
<rect width="22" height="22" fill="white" transform="translate(13.9747 9)"/>
</clipPath>
</defs>
</svg>
