<svg width="27" height="25" viewBox="0 0 27 25" fill="none" xmlns="http://www.w3.org/2000/svg">
<g clip-path="url(#clip0_89_11532)">
<path d="M13.2347 24.8348V18.8716H10.7035V24.8348C11.1193 24.8787 11.5418 24.9009 11.9691 24.9009C12.3964 24.9009 12.8189 24.8787 13.2347 24.8348Z" fill="#5C5C5C"/>
<path fill-rule="evenodd" clip-rule="evenodd" d="M0 12.9487C0 6.34781 5.35882 0.996582 11.9691 0.996582C18.5794 0.996582 23.9382 6.34781 23.9382 12.9487C23.9382 17.0031 21.9172 20.5856 18.8257 22.7466V14.958L11.9691 8.18863L5.11245 14.958V22.7466C2.02163 20.5856 0 17.0031 0 12.9487ZM21.9301 21.6176C22.2419 20.7029 22.6915 19.0212 22.6948 19.0077L27 23.3074L25.3078 24.9973L21.9287 21.6223C21.9291 21.6216 21.9292 21.6208 21.9294 21.62C21.9296 21.6191 21.9297 21.6183 21.9301 21.6176Z" fill="#5C5C5C"/>
</g>
<defs>
<clipPath id="clip0_89_11532">
<rect width="27" height="24" fill="white" transform="translate(0 0.996582)"/>
</clipPath>
</defs>
</svg>
