<svg width="40" height="36" viewBox="0 0 40 36" fill="none" xmlns="http://www.w3.org/2000/svg">
<path d="M19.607 35.7573V26.8124H15.857V35.7573C16.473 35.8231 17.099 35.8564 17.732 35.8564C18.365 35.8564 18.991 35.8231 19.607 35.7573Z" fill="white"/>
<path fill-rule="evenodd" clip-rule="evenodd" d="M0 17.9282C0 8.02685 7.939 0 17.732 0C27.525 0 35.464 8.02685 35.464 17.9282C35.464 24.0098 32.47 29.3836 27.89 32.6251V20.9422L17.732 10.7881L7.574 20.9422V32.6251C2.995 29.3836 0 24.0098 0 17.9282ZM32.489 30.9315C32.951 29.5595 33.617 27.0369 33.622 27.0167L40 33.4663L37.493 36.001L32.487 30.9386C32.4875 30.9376 32.4878 30.9363 32.488 30.9351C32.4883 30.9338 32.4885 30.9325 32.489 30.9315Z" fill="white"/>
</svg>
