<svg width="92" height="92" viewBox="0 0 92 92" fill="none" xmlns="http://www.w3.org/2000/svg">
<path d="M41.1168 1.41986L40.7191 57.6761L87 73.7252L85.1029 25.9296L41.1168 1.41986Z" stroke="white" stroke-miterlimit="10" stroke-linejoin="round"/>
<path d="M29.1372 9.60509L41.1167 1.41986L40.7189 57.6761L29.1372 63.7041V9.60509Z" stroke="white" stroke-miterlimit="10" stroke-linejoin="round"/>
<path d="M86.9999 73.7251L75.6324 78.6669L29.1372 63.704L40.7189 57.676L86.9999 73.7251Z" stroke="white" stroke-miterlimit="10" stroke-linejoin="round"/>
<path d="M29.1372 16.7958L23.7517 13.9348L15.184 20.33L14.9545 72.2871L59.629 85.2457L66.3149 82.2623V75.6682" stroke="white" stroke-miterlimit="10" stroke-linejoin="round"/>
<path d="M23.7517 68.1716L14.9545 72.2871L59.629 85.2458L66.3149 82.2624L23.7517 68.1716Z" stroke="white" stroke-miterlimit="10" stroke-linejoin="round"/>
<path d="M23.7517 13.9348V68.1715L14.9545 72.2871L15.184 20.33L23.7517 13.9348Z" stroke="white" stroke-miterlimit="10" stroke-linejoin="round"/>
<path d="M14.5568 27.6126L8.77359 26.052L5.00992 29.9381V80.3193L47.0835 91.0901L52.0252 89.2542L52.1323 83.0732" stroke="white" stroke-miterlimit="10" stroke-linejoin="round"/>
<path d="M9.12548 77.5807L5.00992 80.3193L47.0835 91.0901L52.0252 89.2542L9.12548 77.5807Z" stroke="white" stroke-miterlimit="10" stroke-linejoin="round"/>
<path d="M8.77359 26.052L9.12548 77.5807L5.00992 80.3193V29.9381L8.77359 26.052Z" stroke="white" stroke-miterlimit="10" stroke-linejoin="round"/>
</svg>
