<svg width="92" height="92" viewBox="0 0 92 92" fill="none" xmlns="http://www.w3.org/2000/svg">
<path d="M83.9001 65.5344L84 19.1501L64.478 27.8329L83.9001 65.5344Z" stroke="white" stroke-miterlimit="10" stroke-linejoin="round"/>
<path d="M45.3702 58.9938C45.5845 59.0652 83.9144 65.5345 83.9144 65.5345L58.6943 35.2304L45.3845 58.9938H45.3702Z" stroke="white" stroke-miterlimit="10" stroke-linejoin="round"/>
<path d="M44.6705 90.0262L83.9001 65.5344L42.9282 67.7337L44.6705 90.0262Z" stroke="white" stroke-miterlimit="10" stroke-linejoin="round"/>
<path d="M3.47009 43.299L42.9282 67.7336L44.6705 90.0261L4.31267 62.2783L3.47009 43.299Z" stroke="white" stroke-miterlimit="10" stroke-linejoin="round"/>
<path d="M5.32654 36.5728L45.3702 58.9938L58.68 35.2304L17.1226 16.4081L5.32654 36.5728Z" stroke="white" stroke-miterlimit="10" stroke-linejoin="round"/>
<path d="M64.478 27.8328L22.1208 11.3241L38.6724 3.58386L84 19.15L64.478 27.8328Z" stroke="white" stroke-miterlimit="10" stroke-linejoin="round"/>
<path d="M28.1474 21.4065L22.1208 11.3242" stroke="white" stroke-miterlimit="10" stroke-linejoin="round"/>
<path d="M3.47009 43.299L18.5079 43.7274" stroke="white" stroke-miterlimit="10" stroke-linejoin="round"/>
</svg>
