<svg xmlns="http://www.w3.org/2000/svg" width="21" height="21" viewBox="0 0 21 21" fill="none">
  <path fill-rule="evenodd" clip-rule="evenodd" d="M18.207 9.79276L13.207 4.79276C12.816 4.40176 12.184 4.40176 11.793 4.79276C11.402 5.18376 11.402 5.81576 11.793 6.20676L15.086 9.49976H3.5C2.947 9.49976 2.5 9.94776 2.5 10.4998C2.5 11.0518 2.947 11.4998 3.5 11.4998H15.086L11.793 14.7928C11.402 15.1838 11.402 15.8158 11.793 16.2068C11.988 16.4018 12.244 16.4998 12.5 16.4998C12.756 16.4998 13.012 16.4018 13.207 16.2068L18.207 11.2068C18.598 10.8158 18.598 10.1838 18.207 9.79276Z" fill="#A49C93"/>
</svg>